#!OML:ASF X:\für Bonn\!DataBase\2005_08_10_Bjorn_Final\c3d\bjorn.ASF
:FULLY-SPECIFIED
:DEGREES
245
root -15.1538 19.1883 -3.45055 1445.68 13.3919 2.96944
lowerback -6.85301 1.20472 2.0102
upperback 6.65262 1.58966 -1.89979
thorax 11.113 1.02734 -2.91717
lowerneck -3.99027 1.62788 1.55865
upperneck 11.5531 3.89049 -15.0256
head 4.42397 1.23825 -4.71432
rclavicle 3.926e-015 2.24627e-014
rhumerus -42.4147 -38.547 -72.0226
rradius 14.0526
rwrist 21.6085
rhand -7.56423 0.576022
rfingers 7.12502
rthumb 18.3281 -28.5805
lclavicle 3.926e-015 2.24627e-014
lhumerus -34.1793 -13.4902 90.3871
lradius 36.5408
lwrist -14.0442
lhand -23.6853 -6.73852
lfingers 7.12502
lthumb 2.78133 23.2231
rfemur -3.82618 -19.1697 7.97415
rtibia 22.6332
rfoot -19.5657 -7.28309
rtoes -17.9953
lfemur -21.1622 22.1216 -14.1386
ltibia 30.8355
lfoot -13.29 15.5134
ltoes -1.70546
246
root -15.0546 19.1743 -3.437 1445.7 14.5031 3.06832
lowerback -6.71504 1.26739 1.89034
upperback 6.68207 1.70427 -2.01953
thorax 11.0712 1.07991 -2.96188
lowerneck -3.96165 1.58036 1.44967
upperneck 11.4843 3.78514 -14.6706
head 4.38089 1.20563 -4.58748
rclavicle -4.08829e-015 1.49089e-015
rhumerus -43.2824 -38.5659 -71.8339
rradius 14.0538
rwrist 21.5455
rhand -7.11417 0.154737
rfingers 7.12502
rthumb 18.761 -28.9605
lclavicle -4.08829e-015 1.49089e-015
lhumerus -34.368 -13.4848 90.4079
lradius 37.1425
lwrist -14.1898
lhand -23.8495 -6.84733
lfingers 7.12502
lthumb 2.62275 23.1163
rfemur -3.13444 -19.4596 7.57403
rtibia 22.1865
rfoot -19.6136 -7.93753
rtoes -18.2134
lfemur -21.4843 22.0987 -14.5118
ltibia 31.0006
lfoot -13.5538 16.1108
ltoes -0.321669
247
root -14.9528 19.1593 -3.42421 1445.69 15.5715 3.14755
lowerback -6.53706 1.33515 1.81176
upperback 6.72573 1.82194 -2.14692
thorax 11.0236 1.13798 -3.03854
lowerneck -3.8934 1.54192 1.42808
upperneck 11.3607 3.68634 -14.3946
head 4.31778 1.17977 -4.50009
rclavicle -3.93035e-014 -1.49089e-015
rhumerus -43.953 -38.2893 -71.9733
rradius 14.1252
rwrist 21.3932
rhand -6.61018 -0.280093
rfingers 7.12502
rthumb 19.2457 -29.3478
lclavicle -3.93035e-014 -1.49089e-015
lhumerus -34.563 -13.3893 90.3884
lradius 37.7411
lwrist -14.371
lhand -24.0301 -6.9219
lfingers 7.12502
lthumb 2.44832 23.0438
rfemur -2.38111 -19.7038 7.16409
rtibia 21.71
rfoot -19.7095 -8.52023
rtoes -18.1084
lfemur -21.749 21.9888 -14.859
ltibia 31.1937
lfoot -13.7482 16.5914
ltoes 0.478033
248
root -14.8485 19.1452 -3.41217 1445.72 16.5868 3.25161
lowerback -6.38944 1.40536 1.6949
upperback 6.7671 1.94662 -2.27328
thorax 10.991 1.19653 -3.09131
lowerneck -3.81601 1.5084 1.45369
upperneck 11.1759 3.59285 -14.2026
head 4.23748 1.15708 -4.44656
rclavicle 5.64051e-015 -1.13804e-014
rhumerus -44.4035 -37.7331 -72.4248
rradius 14.279
rwrist 21.1862
rhand -6.03671 -0.809033
rfingers 7.12502
rthumb 19.7971 -29.8208
lclavicle 5.64051e-015 -1.13804e-014
lhumerus -34.7297 -13.177 90.3583
lradius 38.2886
lwrist -14.5347
lhand -24.234 -7.04352
lfingers 7.12502
lthumb 2.25141 22.9243
rfemur -1.67243 -19.94 6.73014
rtibia 21.2322
rfoot -19.7432 -9.1333
rtoes -18.4684
lfemur -22.0353 21.8401 -15.2621
ltibia 31.4183
lfoot -13.8706 16.8871
ltoes 0.505568
249
root -14.7417 19.1309 -3.39932 1445.73 17.5441 3.33242
lowerback -6.2232 1.48109 1.59722
upperback 6.81101 2.07491 -2.38528
thorax 10.9505 1.25769 -3.13944
lowerneck -3.74005 1.48442 1.47927
upperneck 11.0037 3.52037 -14.0579
head 4.16408 1.14145 -4.40719
rclavicle -6.83571e-014 4.31363e-014
rhumerus -44.668 -36.8078 -73.2192
rradius 14.5789
rwrist 20.7866
rhand -5.41149 -1.37407
rfingers 7.12502
rthumb 20.398 -30.3227
lclavicle -6.83571e-014 4.31363e-014
lhumerus -34.9158 -12.9111 90.3305
lradius 38.8333
lwrist -14.6305
lhand -24.4516 -7.24841
lfingers 7.12502
lthumb 2.04121 22.7216
rfemur -0.935141 -20.2146 6.2771
rtibia 20.7595
rfoot -19.7376 -9.5589
rtoes -18.4621
lfemur -22.2867 21.7134 -15.6399
ltibia 31.6771
lfoot -13.9099 16.9147
ltoes 0.284624
250
root -14.6331 19.1171 -3.38752 1445.75 18.4748 3.45693
lowerback -6.05308 1.54577 1.44224
upperback 6.86807 2.19551 -2.50542
thorax 10.9199 1.31145 -3.16578
lowerneck -3.73954 1.4675 1.53653
upperneck 10.8701 3.46258 -13.9193
head 4.11722 1.12887 -4.37449
rclavicle 2.7308e-014 -1.27222e-014
rhumerus -44.7831 -35.7296 -74.2266
rradius 14.9167
rwrist 20.3378
rhand -4.74359 -1.90531
rfingers 7.12502
rthumb 21.0398 -30.784
lclavicle 2.7308e-014 -1.27222e-014
lhumerus -35.1155 -12.5452 90.2703
lradius 39.3977
lwrist -14.7625
lhand -24.7166 -7.42698
lfingers 7.12502
lthumb 1.78528 22.5453
rfemur -0.215718 -20.3729 5.78372
rtibia 20.316
rfoot -19.6969 -10.0936
rtoes -18.9318
lfemur -22.5441 21.7238 -16.0977
ltibia 31.9556
lfoot -13.6925 16.5746
ltoes -0.20899
251
root -14.5219 19.1035 -3.37596 1445.8 19.3582 3.58406
lowerback -5.8993 1.6261 1.23967
upperback 6.92683 2.33984 -2.60326
thorax 10.8992 1.37187 -3.13755
lowerneck -3.76088 1.45426 1.64219
upperneck 10.7217 3.41029 -13.8279
head 4.07155 1.11825 -4.36439
rclavicle 2.13694e-014 -2.45499e-014
rhumerus -44.7747 -34.4729 -75.4009
rradius 15.3318
rwrist 19.7711
rhand -4.05828 -2.45377
rfingers 7.12502
rthumb 21.698 -31.2578
lclavicle 2.13694e-014 -2.45499e-014
lhumerus -35.3097 -12.216 90.2497
lradius 39.954
lwrist -14.7831
lhand -25.0608 -7.50275
lfingers 7.12502
lthumb 1.45288 22.472
rfemur 0.449432 -20.4858 5.28719
rtibia 19.9164
rfoot -19.5486 -10.6191
rtoes -19.8573
lfemur -22.808 21.7024 -16.5689
ltibia 32.2463
lfoot -13.3055 16.0427
ltoes -1.23701
252
root -14.4086 19.0906 -3.36568 1445.86 20.169 3.68508
lowerback -5.70502 1.72831 1.00004
upperback 6.96483 2.51307 -2.66946
thorax 10.8285 1.44099 -3.05112
lowerneck -3.85324 1.43423 1.81432
upperneck 10.655 3.36019 -13.7803
head 4.06429 1.10287 -4.37982
rclavicle 6.13748e-014 -5.96354e-015
rhumerus -44.798 -33.2518 -76.4869
rradius 15.7469
rwrist 19.3965
rhand -3.34882 -2.95878
rfingers 7.12502
rthumb 22.3792 -31.6825
lclavicle 6.13748e-014 -5.96354e-015
lhumerus -35.5144 -11.8502 90.2565
lradius 40.4276
lwrist -14.7806
lhand -25.4954 -7.61104
lfingers 7.12502
lthumb 1.03313 22.3662
rfemur 1.06322 -20.5018 4.80569
rtibia 19.588
rfoot -19.4138 -11.0566
rtoes -20.5807
lfemur -23.0521 21.6829 -17.0273
ltibia 32.532
lfoot -12.7221 15.362
ltoes -2.62723
253
root -14.2924 19.0799 -3.35515 1445.93 20.9314 3.83077
lowerback -5.50833 1.83727 0.685021
upperback 7.00458 2.70304 -2.74205
thorax 10.7548 1.5128 -2.92762
lowerneck -3.95892 1.41893 2.07812
upperneck 10.5867 3.31514 -13.7909
head 4.06111 1.09017 -4.42884
rclavicle -5.79954e-014 5.56597e-015
rhumerus -44.7334 -31.9555 -77.676
rradius 16.1613
rwrist 18.9098
rhand -2.65495 -3.45192
rfingers 7.12502
rthumb 23.0451 -32.0941
lclavicle -5.79954e-014 5.56597e-015
lhumerus -35.6354 -11.4088 90.238
lradius 40.7377
lwrist -14.7645
lhand -25.9317 -7.84775
lfingers 7.12502
lthumb 0.611673 22.1311
rfemur 1.64283 -20.3607 4.28262
rtibia 19.3244
rfoot -19.2076 -11.6237
rtoes -22.403
lfemur -23.2582 21.6812 -17.5492
ltibia 32.818
lfoot -11.8023 14.6651
ltoes -4.1212
254
root -14.1743 19.0697 -3.34449 1446 21.6336 3.95365
lowerback -5.29414 1.93235 0.362884
upperback 7.02245 2.87013 -2.79257
thorax 10.6414 1.57156 -2.78135
lowerneck -4.04896 1.43533 2.36786
upperneck 10.498 3.3141 -13.8583
head 4.05402 1.09864 -4.49789
rclavicle 6.95746e-016 -7.95139e-016
rhumerus -44.6876 -30.5366 -78.8715
rradius 16.6284
rwrist 18.3654
rhand -1.89207 -4.02616
rfingers 7.12502
rthumb 23.7769 -32.575
lclavicle 6.95746e-016 -7.95139e-016
lhumerus -35.8096 -10.8571 90.2087
lradius 41.0371
lwrist -14.6983
lhand -26.2622 -8.10184
lfingers 7.12502
lthumb 0.292472 21.8777
rfemur 2.16389 -20.1886 3.76423
rtibia 19.1547
rfoot -18.8922 -12.1521
rtoes -24.9449
lfemur -23.42 21.6087 -18.0436
ltibia 33.1032
lfoot -11.1973 13.9959
ltoes -6.30497
255
root -14.0539 19.0597 -3.33505 1446.07 22.3568 4.08101
lowerback -5.09212 1.98354 0.0852126
upperback 7.06423 2.97511 -2.86447
thorax 10.5617 1.60571 -2.69281
lowerneck -4.11873 1.48293 2.59377
upperneck 10.3514 3.34337 -13.8479
head 4.02693 1.12561 -4.52954
rclavicle -2.5345e-014 -1.47101e-014
rhumerus -44.5422 -28.9504 -80.2286
rradius 17.1439
rwrist 17.5868
rhand -1.44424 -4.28075
rfingers 7.12502
rthumb 24.2063 -32.7731
lclavicle -2.5345e-014 -1.47101e-014
lhumerus -35.9791 -10.1936 90.1296
lradius 41.3436
lwrist -14.4876
lhand -26.5149 -8.4342
lfingers 7.12502
lthumb 0.048408 21.5455
rfemur 2.68209 -19.8859 3.25724
rtibia 19.0623
rfoot -18.5537 -12.7644
rtoes -27.8672
lfemur -23.557 21.3919 -18.5279
ltibia 33.4054
lfoot -10.7357 13.3845
ltoes -7.43572
256
root -13.9314 19.0492 -3.32767 1446.15 23.0639 4.19215
lowerback -4.8917 2.00751 -0.17332
upperback 7.08188 3.03648 -2.91127
thorax 10.4523 1.61868 -2.59488
lowerneck -4.17166 1.56094 2.73219
upperneck 10.2107 3.41788 -13.804
head 4.00132 1.17317 -4.53364
rclavicle -6.17226e-014 3.47873e-014
rhumerus -44.3762 -27.1384 -81.5802
rradius 17.6557
rwrist 16.5671
rhand -1.24079 -4.27742
rfingers 7.12502
rthumb 24.4014 -32.7436
lclavicle -6.17226e-014 3.47873e-014
lhumerus -36.2142 -9.46486 90.0943
lradius 41.6742
lwrist -14.069
lhand -26.6006 -8.52697
lfingers 7.12502
lthumb -0.0342995 21.4528
rfemur 3.13241 -19.4953 2.76492
rtibia 19.0511
rfoot -18.2298 -13.2839
rtoes -30.3308
lfemur -23.7072 21.0467 -19.0048
ltibia 33.7343
lfoot -10.4665 12.9028
ltoes -8.03682
257
root -13.807 19.0368 -3.32124 1446.23 23.7593 4.30252
lowerback -4.68083 2.03295 -0.403009
upperback 7.10754 3.09709 -2.96926
thorax 10.348 1.63455 -2.52598
lowerneck -4.27125 1.63577 2.8894
upperneck 10.1061 3.49231 -13.7712
head 3.99514 1.21751 -4.54453
rclavicle -5.725e-014 3.1408e-014
rhumerus -44.1861 -25.0574 -83.0865
rradius 18.284
rwrist 15.1328
rhand -1.01431 -4.36781
rfingers 7.12502
rthumb 24.6185 -32.8046
lclavicle -5.725e-014 3.1408e-014
lhumerus -36.4647 -8.77632 90.0431
lradius 42.0121
lwrist -13.5157
lhand -26.5666 -8.4053
lfingers 7.12502
lthumb -0.00146685 21.5744
rfemur 3.57833 -18.9317 2.275
rtibia 19.127
rfoot -18.0982 -13.6989
rtoes -31.7784
lfemur -23.8417 20.7533 -19.4692
ltibia 34.1009
lfoot -10.3772 12.3204
ltoes -8.07954
